# xmcd CD database file
#
# Track frame offsets:
#	150
#	11550
#	27290
#	39532
#	58992
#	72232
#	91147
#	105232
#	124217
#	140160
#	156820
#	174597
#	189675
#	207672
#	222232
#	234895
#	246090
#	259290
#	272455
#	286350
#
# Disc length: 4049 seconds
#
# Revision: 1
# Processed by: cddbd v1.4PL0 Copyright (c) Steve Scherf et al.
# Submitted via: CDex 1.50Beta7
#
DISCID=290fcf14
DTITLE=Various Artist - Easy Listening Jazz Classics Disc 1
DYEAR=1996
DGENRE=Jazz
TTITLE0=Don't  Get Around Much Anymore
TTITLE1=It's wonderful
TTITLE2=Fascinating Rhythm
TTITLE3=You'd Be So Nice To Come Home To
TTITLE4=I Got Rhythm
TTITLE5=Manhattan
TTITLE6=I'm Beginning To See The Light
TTITLE7=Let's Call The Whole Thing Off
TTITLE8=Sing, Sing, Sing
TTITLE9=All Or Nothing At All
TTITLE10=The Birth Of The Blues
TTITLE11=I Was Doing Alright
TTITLE12=God Bless The Child
TTITLE13=Everything I Have  Is Yours
TTITLE14=The Very Though Of You
TTITLE15=I Can't Get Started
TTITLE16=Tired
TTITLE17=Someone To Watch Over Me
TTITLE18=For You, For Me, For Everymore
TTITLE19=Love For Sale
EXTD=YEAR: 1996
EXTT0=
EXTT1=
EXTT2=
EXTT3=
EXTT4=
EXTT5=
EXTT6=
EXTT7=
EXTT8=
EXTT9=
EXTT10=
EXTT11=
EXTT12=
EXTT13=
EXTT14=
EXTT15=
EXTT16=
EXTT17=
EXTT18=
EXTT19=
PLAYORDER=
